<svg width="86" height="86" viewBox="0 0 86 86" fill="none" xmlns="http://www.w3.org/2000/svg">
<g clip-path="url(#clip0_165_3579)">
<path d="M77.3453 35.3436C73.3413 16.1507 54.5366 3.83761 35.3436 7.84154C16.1507 11.8455 3.83763 30.6502 7.84156 49.8432C11.8455 69.0361 30.6503 81.3492 49.8432 77.3452C69.0361 73.3413 81.3492 54.5365 77.3453 35.3436Z" fill="white"/>
<path d="M77.3453 35.3436C73.3413 16.1507 54.5366 3.83761 35.3436 7.84154C16.1507 11.8455 3.83763 30.6502 7.84156 49.8432C11.8455 69.0361 30.6503 81.3492 49.8432 77.3452C69.0361 73.3413 81.3492 54.5365 77.3453 35.3436Z" stroke="#EAEAEA"/>
<mask id="mask0_165_3579" style="mask-type:luminance" maskUnits="userSpaceOnUse" x="18" y="18" width="49" height="49">
<path d="M58.0877 18.9304L18.9307 27.0991L27.0994 66.2561L66.2564 58.0874L58.0877 18.9304Z" fill="white"/>
</mask>
<g mask="url(#mask0_165_3579)">
<path d="M25.7547 55.303L33.5816 27.7932C35.459 28.5319 44.8571 31.9294 46.4056 32.6252L38.579 60.1366C37.5938 62.5259 24.616 58.8547 25.7544 55.3015L25.7547 55.303Z" fill="#FBBC04"/>
<path d="M63.1055 47.5124L44.9325 25.4281C42.412 22.4373 38.2422 22.0293 35.4425 24.6903C32.6428 27.3515 32.5583 31.8433 35.1102 34.9845L53.2839 57.0719C55.8039 60.0612 59.9738 60.4692 62.7735 57.8082C65.4328 55.1763 65.6259 50.5032 63.1062 47.5154L63.1055 47.5124Z" fill="#4285F4"/>
<path d="M33.6237 64.8889C37.2277 64.137 39.4872 60.3531 38.6702 56.4371C37.8533 52.5212 34.2694 49.9561 30.6654 50.708C27.0613 51.4598 24.8019 55.2439 25.6188 59.1598C26.4358 63.0758 30.0197 65.6407 33.6237 64.8889Z" fill="#34A853"/>
</g>
</g>
<defs>
<clipPath id="clip0_165_3579">
<rect width="72" height="72" fill="white" transform="translate(0 14.7039) rotate(-11.7838)"/>
</clipPath>
</defs>
</svg>
