<svg xmlns="http://www.w3.org/2000/svg" width="436" height="515" viewBox="0 0 436 515" fill="none"><g clip-path="url(#clip0_479_3011)"><path d="M432.191 254.77C431.262 260.062 431.237 259.757 429.514 260.881C429.78 259.678 429.838 258.437 429.685 257.214C429.33 258.644 428.788 260.021 428.072 261.309C424.1 262.042 413.833 264.071 410.068 262.531C409.709 261.158 409.52 259.746 409.506 258.327C409.084 259.376 408.832 260.486 408.761 261.614C408.053 260.545 407.533 259.363 407.221 258.119C404.691 251.299 403.334 250.419 404.532 247.877C406.976 255.112 408.968 254.305 423.44 251.69C426.166 251.268 428.814 250.444 431.298 249.245C432.237 250.947 432.552 252.922 432.191 254.831V254.77ZM427.62 269.437C427.841 268.322 427.878 267.178 427.73 266.051C427.427 267.291 426.976 268.489 426.385 269.62C426.462 269.003 426.462 268.379 426.385 267.762C426.142 268.685 425.789 269.576 425.334 270.414C424.564 270.537 423.708 270.598 422.89 270.671C418.123 271.05 414.407 272.834 410.667 270.158C410.232 269.05 409.917 267.898 409.726 266.723C409.534 267.548 409.439 268.394 409.445 269.241C409.267 269.133 409.073 269.055 408.871 269.009C407.295 267.147 406.054 265.025 405.204 262.739C404.865 261.292 404.92 259.781 405.363 258.363C406.805 263.154 406.866 266.613 420.714 265.183C423.601 264.879 426.461 264.356 429.27 263.619C429.533 265.688 428.981 267.779 427.73 269.449L427.62 269.437ZM401.268 228.541C402.674 227.612 407.098 231.083 404.691 234.224C403.004 232.843 400.621 230.558 401.268 228.541ZM401.158 257.007C400.633 258.278 400.279 259.614 400.107 260.979C398.555 273.262 376.616 273.079 374.868 258.95C374.728 260.819 374.922 262.698 375.443 264.499C373.243 265.623 370.872 266.784 368.488 267.848C367.657 260.038 367.535 243.66 369.601 237.818C369.601 241.961 370.53 246.85 372.693 250.284C371.346 246.191 371.151 241.806 372.131 237.61C372.131 237.61 377.02 217.064 380.051 211.454C382.41 207.238 391.368 198.804 393.495 190.285C393.869 190.36 394.257 190.321 394.609 190.176C394.962 190.03 395.263 189.783 395.475 189.467L395.573 189.247C395.64 189.111 395.689 188.967 395.72 188.819C395.787 188.558 395.832 188.292 395.854 188.024C396.062 186.008 395.475 181.815 395.561 180.691C395.28 181.913 395.328 188.171 394.436 188.782C394.436 188.782 394.351 188.782 394.277 188.868C394.212 188.876 394.147 188.876 394.082 188.868C393.982 188.898 393.876 188.898 393.776 188.868C395.231 181.437 394.192 177.672 397.076 178.308C400.364 178.992 406.695 185.947 399.863 200.002C398.07 200.3 396.241 200.3 394.448 200.002C395.946 200.708 397.563 201.122 399.215 201.224L398.861 201.958C397.759 202.058 396.65 202.058 395.548 201.958C396.43 202.445 397.37 202.815 398.347 203.058C395.793 208.57 394.84 212.53 397.394 222.137C397.663 219.839 397.712 217.578 397.944 214.913C411.107 217.639 422.865 210.464 425.64 216.93C428.084 223.127 431.237 228.737 429.917 230.851C429.199 229.278 428.229 227.833 427.045 226.573C427.872 228.239 428.449 230.019 428.756 231.853C424.796 234.298 418.367 235.288 413.772 236.632C413.637 236.177 413.462 235.735 413.246 235.312C413.246 235.312 413.002 236.192 412.77 236.938C411.987 237.207 412.256 237.109 411.547 237.378C411.671 235.772 411.506 234.158 411.058 232.611C410.978 234.371 410.653 236.111 410.093 237.781C408.04 238.062 407.453 236.669 405.766 235.031C408.211 230.472 402.723 227.209 401.281 228.358C401.831 226.757 404.654 224.031 408.858 226.097C410.209 226.96 411.441 227.996 412.525 229.177C412.275 228.237 411.914 227.33 411.45 226.475C414.083 224.412 416.893 222.584 419.846 221.012C417.284 221.953 414.803 223.102 412.427 224.447C413.139 222.831 413.656 221.136 413.967 219.399C413.03 221.519 411.827 223.511 410.386 225.327C404.471 221.122 396.086 226.695 401.073 233.075C401.757 237.329 398.433 239.761 401.195 245.64C400.259 247.364 399.769 249.294 399.769 251.256C399.769 253.218 400.259 255.148 401.195 256.872L401.158 257.007ZM369.112 271.392C368.897 270.59 368.746 269.773 368.66 268.948C371.336 268.263 374.05 267.395 376.152 266.625C376.47 267.518 376.69 267.994 377.032 268.752C374.062 269.62 371.471 270.475 369.112 271.331V271.392ZM359.64 279.19C356.877 273.543 356.058 249.062 359.468 239.993C363.868 238.905 365.482 238.38 367.083 238.111C365.47 242.645 365.054 267.762 367.841 276.134C365.604 276.965 362.17 277.748 359.652 279.178L359.64 279.19ZM354.078 243.489C353.431 252.949 351.451 289.567 360.874 290.337C350.424 289.982 350.888 258.461 354.078 243.489ZM347.686 291.644C348.165 291.32 348.552 290.877 348.809 290.359C349.066 289.84 349.185 289.264 349.153 288.687C349.153 286.242 347.136 284.641 345.486 285.961C347.063 283.688 349.874 285.203 349.874 288.271C349.944 289.001 349.762 289.734 349.357 290.345C348.952 290.957 348.349 291.411 347.65 291.632L347.686 291.644ZM341.575 293.783C342.054 293.459 342.441 293.016 342.698 292.498C342.955 291.979 343.074 291.403 343.042 290.825C343.042 288.381 341.025 286.78 339.375 288.1C340.952 285.827 343.763 287.342 343.763 290.41C343.836 291.141 343.654 291.874 343.249 292.486C342.844 293.099 342.239 293.552 341.538 293.771L341.575 293.783ZM335.464 295.922C338.581 294.174 336.21 287.843 333.313 290.239C333.508 289.92 333.779 289.655 334.1 289.465C334.422 289.276 334.785 289.168 335.158 289.151C338.287 289.151 338.617 295.397 335.464 295.922ZM432.301 239.7C432.838 245.041 431.078 245.811 430.7 246.605L430.516 246.715C430.539 245.183 430.239 243.663 429.636 242.254C429.719 243.982 429.483 245.709 428.94 247.351C428.797 246.236 428.5 245.146 428.06 244.112C428.064 245.342 427.95 246.57 427.717 247.779C425.346 248.475 413.686 251.323 410.032 251.079C409.802 249.732 409.647 248.373 409.567 247.009C409.068 248.203 408.719 249.456 408.528 250.737C408.445 250.698 408.367 250.648 408.296 250.59C407.453 250.15 405.852 245.958 405.583 245.053C406.194 243.049 406.548 240.372 405.448 238.588C405.815 240.094 405.629 241.681 404.923 243.061C404.559 242.171 404.424 241.203 404.528 240.247C404.633 239.291 404.974 238.376 405.522 237.585C408.382 240.983 410.411 240.03 413.674 239.064C418.416 237.695 425.896 236.974 430.614 234.053C431.677 235.728 432.272 237.656 432.337 239.639L432.301 239.7ZM224.486 398.503C216.884 397.807 206.593 397.819 205.126 397.904C209.318 397.55 215.32 396.425 224.315 397.428C224.315 397.758 224.425 398.124 224.486 398.503ZM182.332 411.422L180.743 399.554C184.727 398.65 194.358 398.21 201.142 398.112L202.01 409.931L182.332 411.422ZM184.923 486.332C185.901 470.296 183.578 432.224 182.478 416.299C190.667 415.944 197.585 415.822 200.066 415.822C197.414 416.152 190.545 416.873 183.774 417.423C185.632 437.553 187.257 466.019 184.874 486.32L184.923 486.332ZM159.256 168.151C157.409 166.518 155.444 165.022 153.377 163.678L153.206 163.592L153.512 163.299L153.695 163.103L153.866 162.908C154.013 162.719 154.143 162.519 154.257 162.309V162.248L154.416 161.918C154.545 161.619 154.656 161.313 154.746 161.001C154.746 160.793 154.856 160.622 154.893 160.439V160.378C154.942 160.158 154.991 159.917 155.04 159.657C155.04 159.437 155.113 159.217 155.15 158.972C155.48 159.51 155.797 160.06 156.127 160.598C156.942 161.958 157.757 163.401 158.572 164.924L158.657 165.095C159.04 165.812 159.423 166.55 159.806 167.308L159.977 167.65C160.356 168.408 160.747 169.178 161.126 169.972C160.491 169.373 159.831 168.75 159.171 168.2L159.256 168.151ZM161.701 255.027C160.943 257.324 160.478 258.913 159.696 266.308C158.657 272.321 156.152 280.241 152.791 284.348C148.048 290.557 147.682 300.371 141.412 305.798C138.442 290.471 135.093 274.484 131.28 258.595L131.121 257.899C125.816 235.752 121.221 219.325 116.283 204.842L116.222 204.659L115.378 202.214L115.195 201.689L114.376 199.391L114.144 198.755L113.924 198.157C113.802 197.839 113.814 197.778 112.225 193.585C113.967 191.518 115.599 189.359 117.114 187.12C117.627 186.387 118.116 185.653 118.593 184.944C120.487 182.097 122.064 179.53 123.078 178.002C126.785 178.887 130.328 180.351 133.577 182.341C134.05 182.634 134.527 182.948 135.007 183.282C135.973 183.942 136.963 184.688 137.99 185.531C140.989 188.065 143.75 190.867 146.24 193.903C146.863 195.382 147.462 196.898 148.073 198.401C148.33 199.049 148.586 199.709 148.831 200.369L149.368 201.811C155.382 217.969 160.112 236.449 164.524 252.68C163.896 252.818 163.31 253.103 162.813 253.511C162.316 253.918 161.922 254.438 161.664 255.027H161.701ZM162.52 265.342C163.143 260.905 162.3 258.4 164.023 256.395C166.59 258.021 165.001 263.558 164.023 265.281C163.556 265.469 163.04 265.495 162.556 265.354L162.52 265.342ZM171.393 274.057L166.883 274.215L171.026 275.829L170.88 276.489L168.313 276.819L170.55 277.943C168.826 285.277 166.883 291.644 170.88 294.492C168.996 294.636 167.109 294.256 165.428 293.392C168.618 296.203 175.28 296.203 179.496 295.678C182.564 295.543 186.011 296.154 189.543 294.578C187.726 294.916 185.86 294.887 184.055 294.492C184.913 294.065 185.731 293.562 186.5 292.989C192.171 289.322 205.212 296.655 200.36 302.461C199.971 301.527 199.378 300.691 198.624 300.017C199.099 301.179 199.197 302.462 198.905 303.683C197.377 304.637 193.894 305.602 187.318 307.704L197.671 307.057C200.506 307.778 201.496 310.332 200.775 313.388C200.455 312.598 200.045 311.847 199.553 311.151C201.325 316.773 197.353 318.9 196.461 319.707L190.288 322.652L192.366 322.481L196.998 322.09C199.528 323.422 200.775 325.011 200.665 327.736C200.633 328.615 200.417 329.477 200.03 330.266C199.842 329.393 199.489 328.563 198.991 327.822C199.369 329.378 199.147 331.019 198.367 332.418C196.497 334.141 194.701 334.862 189.677 337.307L195.96 336.879C199.455 338.712 195.678 344.701 192.452 346.925C190.423 348.307 189.323 348.514 186.231 348.783C176.037 349.651 175.732 350.005 169.12 350.494C157.276 351.472 156.726 349.871 148.342 346.021C143.245 343.687 141.925 338.297 131.646 339.482C134.262 340.264 133.284 339.091 140.605 342.892C137.531 343.118 134.477 343.555 131.463 344.2C127.857 335.644 128.517 323.239 130.546 314.207C130.632 313.815 130.717 313.424 130.815 313.058C130.925 312.911 131.06 312.789 131.182 312.642C133.785 312.129 139.114 311.004 141.326 309.55C139.713 312.874 138.43 315.245 138.723 318.9C139.077 315.307 140.703 313.375 142.781 310.515C151.642 298.428 150.627 293.209 154.795 286.768C156.127 284.873 158.058 283.101 160.478 274.9C161.165 274.775 161.868 274.77 162.556 274.888C162.017 274.415 161.401 274.039 160.735 273.775C161.297 271.71 161.786 269.657 162.165 267.567C165.367 267.567 165.832 266.491 166.162 262.739C166.357 260.404 166.162 257.385 164.023 256.469C166.467 253.56 174.754 257.312 171.356 274.142L171.393 274.057ZM135.667 378.557C135.667 375.574 137.232 373.154 139.151 373.154C141.07 373.154 142.634 375.599 142.634 378.557C142.634 381.514 141.07 383.959 139.151 383.959C137.232 383.959 135.667 381.514 135.667 378.557ZM139.212 428.313C137.256 428.313 135.667 425.869 135.667 422.813C135.667 419.758 137.256 417.313 139.212 417.313C141.167 417.313 142.756 419.758 142.756 422.813C142.756 425.869 141.167 428.313 139.212 428.313ZM128.725 349.553C125.828 350.152 124.264 350.397 123.127 350.641L122.724 350.739L121.991 350.947C121.628 351.063 121.273 351.202 120.927 351.362L120.536 351.545C115.44 338.015 118.825 320.11 121.233 314.61C123.042 314.268 125.67 313.84 128.407 313.388C125.315 322.224 124.948 337.527 129.006 347.463C129.275 348.123 129.564 348.759 129.874 349.37L128.725 349.614V349.553ZM111.614 188.868L110.832 189.98C109.781 187.303 108.693 184.639 107.581 181.974C104.232 173.981 100.541 165.939 96.3118 157.053L95.5174 155.367L95.334 154.963L94.7474 153.655L94.6251 153.374L93.9652 151.859L93.3663 150.429V150.294C92.7218 148.714 92.1428 147.107 91.6307 145.479C90.0418 140.345 90.6651 138.952 90.6651 138.952L91.5451 137.73L92.0829 136.984L92.1807 136.862L92.4863 136.532C92.7856 138.671 93.2932 140.775 94.0018 142.814L94.1485 143.193C96.8106 150.043 101.122 156.131 106.701 160.915L107.361 161.539L107.886 162.028L108.876 162.932L109.487 163.482L110.428 164.289L111.113 164.863L112.03 165.609L112.751 166.183L113.667 166.88L114.401 167.442L115.354 168.127L116.051 168.64L117.114 169.373L117.701 169.777L119.351 170.852C119.044 172.481 118.636 174.09 118.128 175.668C116.613 180.347 114.44 184.787 111.675 188.855L111.614 188.868ZM95.1874 133.745C96.339 124.993 96.5602 116.144 95.8474 107.345C96.2826 107.156 96.6931 106.914 97.0696 106.624C97.3466 108.254 97.6685 109.859 98.0352 111.44C100.406 124.505 108.84 139.013 121.392 146.261C126.11 148.987 137.733 157.945 152.216 156.039C152.287 156.443 152.327 156.851 152.338 157.261C152.321 158.034 152.256 158.806 152.143 159.571C152.045 160.04 151.914 160.501 151.752 160.952C151.63 161.233 151.532 161.502 151.422 161.747C151.312 161.991 151.226 162.138 151.116 162.333V162.407C150.674 162.823 150.196 163.2 149.686 163.531L149.295 163.775L148.953 163.983L148.55 164.203L148.171 164.387L147.792 164.558L147.095 164.827L146.838 164.912L146.301 165.071L146.032 165.132L145.531 165.23H145.311C145.091 165.243 144.871 165.243 144.651 165.23L145.091 165.303H145.347C146.081 165.397 146.82 165.446 147.56 165.45H148.855C149.269 165.406 149.678 165.324 150.077 165.205C149.876 166.751 149.557 168.279 149.124 169.777C148.497 171.765 147.963 173.765 147.523 175.778C146.597 179.899 146.102 184.106 146.044 188.33C142.042 183.437 137.494 179.016 132.49 175.154C125.951 170.155 120.536 168.053 112.934 162.382H112.873L111.431 161.258L110.881 160.805L110.025 160.097L109.377 159.547L108.705 158.96L108.021 158.337L107.495 157.848L106.774 157.163L106.371 156.772L105.625 156.014L105.368 155.745C104.757 155.11 104.146 154.523 103.633 153.851C99.1436 148.814 96.2547 142.556 95.334 135.872C95.334 135.469 95.2607 135.09 95.2363 134.65C95.2118 134.21 95.2363 133.99 95.1629 133.684L95.1874 133.745ZM83.6985 97.8121C81.472 94.3836 79.4989 90.797 77.7951 87.081C74.1285 79.3687 79.1885 67.0487 90.6651 79.4299C96.104 86.2132 95.8352 97.1643 96.5563 102.897C95.2118 106.209 89.0763 106.392 83.7107 97.8243L83.6985 97.8121ZM142.634 71.7787C141.901 64.6165 133.15 66.8899 125.303 68.8943C123.494 69.3587 117.566 70.9965 116.112 72.1699C116.634 71.6052 117.278 71.1664 117.994 70.8865C120.572 69.8767 123.209 69.0237 125.89 68.3321C133.724 66.3276 142.475 64.0543 143.221 71.2165C143.942 78.171 142.585 82.571 139.236 85.5287C142.194 82.571 143.355 78.2932 142.683 71.7176L142.634 71.7787ZM116.112 81.6543C115.99 81.361 115.88 81.0432 115.77 80.7376C116.366 80.4971 116.897 80.1204 117.322 79.6376C116.691 79.5925 116.059 79.6972 115.476 79.9432C115.378 79.6621 115.293 79.3565 115.195 79.0632C115.598 78.9462 115.964 78.7273 116.258 78.4276C115.856 78.2199 115.392 78.1635 114.951 78.2687C114.631 77.3549 114.531 76.3787 114.658 75.419C114.786 74.4594 115.137 73.5431 115.684 72.7443C118.498 71.5021 121.419 70.5163 124.411 69.7987C132.245 67.7943 140.996 65.521 141.742 72.6832C142.377 78.7943 141.412 82.9621 138.882 85.8954C136.756 87.5274 134.331 88.7273 131.744 89.4276C124.301 91.701 119.632 89.4276 116.515 82.5465C117.481 81.7765 118.031 81.3243 118.251 80.6154C117.465 80.7873 116.732 81.1434 116.112 81.6543ZM105.821 41.6387C114.217 38.131 129.043 39.0476 140.275 35.5276C150.371 32.3376 148.941 22.3399 142.218 19.3821C148.256 21.0443 150.64 26.031 148.672 31.6043C151.348 28.6832 152.583 26.1776 150.737 21.9976C151.767 23.2916 152.358 24.8793 152.426 26.5314C152.495 28.1835 152.036 29.8145 151.116 31.1887C154.013 29.221 156.005 27.6076 157.728 27.7543C161.151 32.1421 161.395 36.7132 165.575 46.0876C167.04 49.1413 168.266 52.3041 169.242 55.5476L167.873 55.7065C166.333 50.3899 144.871 50.5121 148.525 60.7665C152.497 54.9732 160.747 55.4254 165.367 56.1099C150.957 58.7865 149.478 64.1032 142.304 63.871C128.212 63.4432 116.112 69.0532 114.132 69.5543C121.062 63.3576 132.465 58.6154 138.943 63.541C143.001 51.221 110.245 59.3976 111.663 70.1654L109.145 70.801C108.873 70.8832 108.644 71.0687 108.507 71.3176C108.37 71.5666 108.336 71.8593 108.412 72.1332C109.17 74.981 109.28 75.5432 110.037 75.7265C110.65 75.8918 111.208 76.2163 111.654 76.6672C112.101 77.118 112.42 77.679 112.58 78.2932C115.928 90.5154 122.968 96.8221 136.963 90.0021C138.296 89.3667 139.53 88.5435 140.63 87.5576C144.296 84.1599 145.518 79.3199 145.347 73.7954C145.286 72.2432 144.761 69.5299 145.983 68.1487C147.205 66.7676 149.051 67.4521 150.554 69.8232L152.302 73.4899C155.565 78.7576 159.941 81.9232 165.966 81.0921C169.951 80.5421 172.75 79.4054 174.62 77.7799C172.762 79.6865 169.816 81.0065 165.428 81.6054C163.3 81.9212 161.125 81.6693 159.125 80.8753C157.125 80.0812 155.37 78.7731 154.037 77.0832C156.14 81.471 156.58 82.4487 156.726 85.0032C156.841 83.6682 156.82 82.3251 156.665 80.9943C161.933 84.1232 169.132 82.0087 172.224 79.8943C172.97 84.2821 174.045 90.6987 173.153 95.3921C171.833 102.42 168.826 95.9787 161.102 96.7243C158.486 96.981 155.736 98.851 153.39 99.2543C144.308 100.843 135.301 98.3499 126.623 106.759C110.172 122.648 107.984 103.324 99.5507 80.6887L109.548 77.6699C110.109 78.039 110.557 78.5548 110.844 79.161L106.566 80.0287C108.083 80.0862 109.602 80.0412 111.113 79.8943C111.3 80.5706 111.5 81.2265 111.712 81.8621C109.373 83.2691 107.124 84.8203 104.977 86.5065C109.548 83.9765 110.172 83.6221 111.993 82.6932C112.246 83.3939 112.51 84.0702 112.787 84.7221C111.479 86.1602 110.293 87.7056 109.243 89.3421C110.465 87.9976 111.504 86.8976 113.105 85.431C117.004 93.7543 123.824 97.1643 135.46 91.5421C137.113 90.7525 138.609 89.6673 139.872 88.3399C138.819 89.2584 137.647 90.0312 136.388 90.6376C122.394 97.4576 115.354 91.1265 112.005 78.9287C111.846 78.3146 111.527 77.7535 111.08 77.3027C110.634 76.8519 110.076 76.5273 109.463 76.3621C108.534 76.1299 108.534 75.311 107.947 72.1087L97.9007 76.411C94.6863 68.2099 92.2296 58.4199 95.9818 50.4387C93.1912 52.8727 90.6636 55.5928 88.4407 58.5543C91.484 50.891 96.6052 45.4399 105.784 41.5899L105.821 41.6387ZM159.867 67.6232C161.917 67.416 163.977 67.8976 165.722 68.9921C166.59 69.6399 165.563 64.7754 159.403 65.7165C156.746 66.0745 154.207 67.0406 151.984 68.5399C151.761 68.0347 151.597 67.5057 151.495 66.9632C155.577 64.743 160.29 63.9718 164.866 64.7754C158.462 61.1087 153.451 64.6776 151.422 66.5843C151.297 65.601 151.546 64.6066 152.118 63.7976C155.308 61.5854 164.341 59.6299 168.203 59.1776C168.906 59.1035 169.615 59.2218 170.256 59.5199C170.374 60.1498 170.452 60.7867 170.488 61.4265C169.975 65.5821 170.268 68.2099 171.711 76.8387C170.702 77.4399 169.622 77.9121 168.496 78.2443C162.862 79.9676 158.071 78.8554 153.952 72.3043C154.566 72.9076 155.334 73.3322 156.171 73.5325C157.009 73.7327 157.885 73.7011 158.706 73.441C161.151 72.4999 160.76 68.6376 159.806 67.611L159.867 67.6232ZM173.312 63.3332C174.534 67.5376 174.693 70.8499 173.996 73.3799C173.533 70.0511 173.304 66.694 173.312 63.3332ZM174.778 61.9154C176.001 66.4865 176.208 70.0065 175.292 72.6099C174.809 73.9583 173.963 75.1469 172.847 76.0443C176.27 72.6343 175.5 67.1221 174.204 62.4287C173.483 59.8376 171.283 58.041 169.083 58.2976C165.282 58.7376 155.516 60.7421 152.473 63.3087C155.211 60.3632 165.807 58.2365 169.584 57.7965C171.784 57.5399 173.984 59.3365 174.705 61.9276L174.778 61.9154ZM138.112 109.179C148.183 103.337 148.513 104.962 152.057 105.39C156.775 105.915 157.961 102.065 160.784 103.019C162.002 103.439 163.109 104.128 164.023 105.035H163.925C163.131 105.268 161.603 103.752 160.258 104.021C158.914 104.29 157.496 105.867 154.832 106.258C152.167 106.649 150.566 106.001 149.185 106.172C145.453 106.903 141.778 107.895 138.185 109.142L138.112 109.179ZM138.112 111.33C145.201 110.817 151.312 109.778 154.697 109.411C156.952 109.212 159.168 108.706 161.285 107.908L161.725 110.425C161.471 110.755 161.189 111.061 160.882 111.342C161.824 111.188 162.705 110.773 163.424 110.144C164.143 109.516 164.673 108.699 164.952 107.785C165.022 107.628 165.15 107.503 165.309 107.437C165.468 107.371 165.647 107.369 165.807 107.431C166.969 109.594 167.566 112.016 167.543 114.471C167.543 124.86 159.635 128.575 158.034 123.234C156.831 124.067 155.438 124.583 153.984 124.734C152.529 124.886 151.059 124.669 149.711 124.102C149.439 125.184 148.873 126.169 148.074 126.948C147.276 127.727 146.277 128.27 145.188 128.514C142.61 129.04 139.383 127.035 137.965 125.251C132.722 118.724 132.355 114.691 133.59 112.467L136.951 112.809C142.377 115.559 147.095 117.404 155.7 115.082C159.733 113.994 160.112 111.611 160.112 111.611C151.556 113.579 146.313 115.168 138.112 111.318V111.33ZM111.223 407.218C110.165 409.957 108.295 412.307 105.863 413.954C103.432 415.601 100.556 416.466 97.6196 416.433C57.9829 415.883 58.7774 415.749 56.2596 413.207C52.764 409.687 53.5096 405.873 53.7052 396.315C54.3407 404.553 53.534 414.722 62.1385 414.649C97.4974 413.977 98.5485 415.101 101.518 414.013C103.923 413.023 106.024 411.416 107.608 409.353C109.192 407.291 110.203 404.846 110.538 402.268C110.758 400.41 110.441 402.671 111.761 391.268C98.3163 389.911 71.3174 391.879 57.7629 393.174C74.4585 390.73 96.6052 388.2 113.631 389.874C111.834 406.228 112.176 404.541 111.186 407.254L111.223 407.218ZM79.6652 311.958C60.9652 308.927 50.0996 308.951 40.7374 316.529C46.0907 310.418 53.2651 309.195 60.5863 309.085C57.1296 307.735 53.5085 306.852 49.8185 306.458C54.6209 306.115 59.4476 306.423 64.1674 307.374C70.7551 283.81 70.3885 249.563 69.594 221.672C72.2707 242.841 71.6229 254.403 71.1463 278.799C74.4463 269.999 76.2674 258.559 78.2229 249.221C77.6485 260.392 70.6451 290.777 66.5263 307.717C77.7951 310.234 93.0485 313.608 111.357 313.302C98.7929 313.901 92.1685 313.877 79.5796 311.909L79.6652 311.958ZM433.755 247.339C436.371 243.733 435.662 235.361 432.655 232.073C434.464 228.407 431.262 223.151 428.39 215.879C426.324 210.99 420.152 210.562 415.031 211.784C408.137 212.579 404.287 213.178 398.958 212.114C399.203 203.437 406.292 198.597 405.656 187.535C405.021 176.474 393.654 170.693 392.126 181.021C390.721 191.104 391.955 192.021 379.611 206.981C374.086 213.532 372.277 226.439 369.735 235.092C365.201 236.045 362.732 236.473 359.86 237.207C358.865 236.731 357.724 236.665 356.682 237.023L355.46 237.439C344.582 241.105 327.96 245.224 316.935 247.864C307.475 250.138 293.273 253.389 283.74 255.515C273.314 259.035 266.897 270.769 265.198 275.364C266.306 269.355 269.238 263.833 273.595 259.549C270.98 260.637 263.817 265.428 261.471 267.029C265.002 262.94 269.131 259.409 273.717 256.554C252.402 227.759 245.508 216.453 236.953 202.777C238.407 208.655 240.62 223.554 241.377 229.531C239.251 220.267 235.828 202.96 230.194 190.114L229.29 188.489L230.145 190.004C218.888 164.411 209.001 161.698 191.951 158.398C197.365 163.971 202.376 172.6 204.87 185.287C202.596 176.377 197.157 163.287 186.903 157.175C182.208 155.835 177.586 154.252 173.055 152.433C177.467 157.554 187.453 166.904 188.516 168.787C188.932 169.52 175.17 170.815 172.163 172.307C182.796 175.032 189.03 175.008 189.274 175.9C200.005 209.841 215.625 312.349 215.882 321.418C215.026 315.673 198.856 210.635 187.991 177C184.947 176.45 172.2 173.749 172.2 173.749C168.753 172.93 168.374 172.233 170.977 171.304L185.485 168.065C182.808 164.057 172.248 152.678 168.594 150.111C172.384 148.021 175.648 145.095 178.14 141.555C184.031 132.548 182.552 120.362 178.751 104.143C176.722 95.5021 179.178 93.1432 174.901 77.3887C178.567 73.8565 178.323 68.1854 176.331 61.2187C176.169 60.7265 176.132 60.2017 176.223 59.6916C176.315 59.1816 176.533 58.7025 176.856 58.2976C176.96 58.1718 177.031 58.0222 177.063 57.8623C177.095 57.7024 177.087 57.537 177.04 57.381C175.964 53.3599 176.624 53.9587 171.784 55.1687C171.613 54.631 171.417 54.0932 171.21 53.5554C171.332 53.5554 166.565 43.3132 166.504 43.191C164.622 38.7665 163.522 34.1221 161.847 30.3699C169.278 10.4843 139.42 -0.112367 123.078 0.608744C113.205 1.13002 103.498 3.36756 94.3929 7.22097C98.5118 7.11097 102.374 6.49985 109.06 8.67541C82.354 6.47541 68.164 25.3221 67.6507 37.4587C74.0307 29.0376 82.7207 24.6254 92.0952 22.181C89.2229 23.1099 80.4474 30.2476 75.7785 38.8887C77.7978 34.315 80.5241 30.0874 83.8574 26.361C64.0452 35.1243 64.5951 54.6799 77.184 72.6587C73.4074 75.2132 71.7818 81.471 74.6174 87.9243C77.4529 94.3776 78.9563 95.6976 82.9285 101.809C83.774 103.468 85.0208 104.889 86.5556 105.944C88.0903 106.998 89.8643 107.652 91.7163 107.847C92.974 115.641 93.1345 123.572 92.1929 131.411L91.6796 132.132L91.3252 132.487L91.1296 132.377C90.8975 132.762 90.6317 133.126 90.3352 133.464L88.7707 135.041L88.404 135.408L83.9307 139.857C77.734 146.053 75.4607 148.29 74.654 149.317L74.2629 149.549C76.0963 158.104 77.2452 178.674 78.064 185.58C99.8196 186.998 98.7318 185.653 96.6418 187.377L80.924 198.487C89.3207 219.863 111.48 259.598 130.754 310.014L129.703 310.442C121.697 288.639 112.219 267.405 101.335 246.887C91.264 227.649 79.2374 199.098 78.8585 197.937C79.6163 197.325 81.0463 196.213 94.7474 187.401H77.3429C76.3896 187.401 76.304 187.328 76.1207 186.411C75.094 179.212 74.4218 160.989 74.1896 149.585C64.7418 155.232 58.8507 158.141 35.4085 166.477C34.504 166.664 33.6322 166.855 32.7929 167.051C34.5206 167.186 36.2388 167.422 37.9385 167.76C47.1663 170.437 55.8074 179.139 57.5674 192.974C53.1918 178.075 44.294 170.657 32.3285 169.349C27.0851 169.349 18.0163 171.304 7.71293 190.909C-2.13818 210.745 0.831819 227.869 1.60182 238.869C2.16404 246.312 1.32071 252.313 2.82404 259.928C7.56626 273.702 9.30182 276.305 11.954 290.031C7.89626 277.809 6.99182 274.02 2.17626 264.914C2.17626 264.914 -0.170407 293.588 2.37182 320.77C3.42293 332.014 7.68848 351.215 11.734 358.121C12.0563 355.321 12.8453 352.594 14.0685 350.054C13.8607 357.388 12.8463 360.333 15.0829 366.212C16.6351 370.233 27.4396 368.803 29.0407 368.779C43.7929 368.62 117.97 364.611 118.74 364.562C114.511 357.229 111.125 334.899 113.765 321.479C114.132 336.488 113.056 352.242 121.758 365.356C121.836 365.469 121.882 365.6 121.894 365.736C121.905 365.872 121.88 366.009 121.822 366.132C121.764 366.256 121.674 366.362 121.562 366.441C121.451 366.519 121.32 366.566 121.184 366.579C99.5751 367.74 79.2252 368.033 38.2074 368.705C40.0896 388.872 39.2707 440.315 33.9663 477.972C34.5013 479.903 35.5004 481.675 36.8765 483.132C38.2526 484.589 39.9641 485.688 41.8618 486.332C67.0274 495.425 119.008 495.719 135.643 485.33C150.444 476.078 154.477 415.296 154.648 398.735C154.233 380.598 150.982 363.511 149.014 351.069C154.184 353.098 156.347 355.261 168.57 354.051C178.054 353.293 178.763 352.829 182.662 352.425C183.884 352.291 185.106 352.205 186.328 352.059C187.16 359.197 188.602 372.335 189.127 378.74C189.286 378.74 190.203 391.341 190.35 391.341C190.032 384.753 188.638 359.942 187.905 351.839C191.621 351.416 195.031 349.578 197.426 346.705C200.091 343.198 201.557 338.455 198.648 335.62C202.425 332.894 203.537 329.79 203.11 325.842C202.929 324.777 202.528 323.762 201.932 322.862C201.336 321.961 200.559 321.194 199.651 320.611C203.733 316.639 205.676 309.195 200.873 305.627C202.133 304.776 203.081 303.538 203.573 302.1C204.065 300.661 204.074 299.102 203.598 297.658C201.643 291.314 190.973 287.183 184.898 290.899C177.431 295.067 172.578 293.808 171.882 290.019C171.124 285.875 172.505 278.958 173.642 274.301C174.778 269.644 174.974 262.812 173.043 258.547C171.417 254.953 169.376 253.254 167.408 252.68C162.52 233.833 157.728 214.009 150.493 195.847C150.069 194.787 149.637 193.724 149.197 192.657C148.904 183.869 151.263 179.212 154.27 171.133C157.838 173.688 162.141 175.313 164.878 178.027C165.27 178.919 165.661 179.835 166.101 180.752L166.406 181.473L167.433 183.918L167.592 184.309C167.999 185.303 168.407 186.305 168.814 187.315L168.961 187.67L170.11 190.554L170.232 190.86C171.096 193.06 171.959 195.305 172.823 197.594C173.715 199.978 174.595 202.349 175.475 204.769C176.93 208.778 178.384 212.897 179.826 217.077C186.597 237.304 195.006 264.315 206.544 300.994C207.766 304.905 208.903 308.719 209.966 312.459C222.347 356.007 223.961 387.405 223.411 393.504C216.543 392.808 209.613 393.03 202.804 394.164C200.433 394.164 183.358 394.36 178.36 396.181C170.684 396.816 160.894 397.929 154.673 398.625V402.463C160.405 401.779 169.474 400.74 176.991 400.08L178.518 411.569C176.441 411.752 174.241 411.96 172.028 412.18L177.186 411.141L175.964 401.485L154.722 402.842C154.807 421.542 151.507 475.833 136.547 487.102C132.636 490.048 117.542 493.213 101.873 494.215C85.7396 495.291 66.9296 492.602 53.4852 490.402L53.8274 500.388V514.321H241.328C240.937 490.793 240.791 475.418 240.448 463.55C237.515 426.064 237.002 431.014 233.787 414.319C239.483 431.845 240.106 446.096 243.565 463.33C248.026 462.902 253.123 461.802 254.944 459.089C258.427 454.261 251.754 426.284 250.3 420.491C239.3 375.66 243.223 377.799 236.855 333.041C235.89 324.889 234.411 318.203 233.506 310.454C226.295 281.634 222.506 254.599 217.116 228.272C226.588 259.39 230.243 298.709 240.656 315.539C240.057 314.317 239.996 304.38 239.85 295.983C241.988 309.843 242.294 317.763 250.348 326.404C256.826 330.621 263.353 331.855 271.322 328.959C294.19 320.403 329.695 303.292 359.016 295.812C366.9 294.064 367.352 286.205 367.572 279.789C367.572 279.031 368.611 279.068 369.796 278.567C371.214 278.029 370.554 275.951 370.346 274.9C372.852 273.885 375.626 272.847 378.902 271.783C386.235 277.748 399.093 275.963 408.076 273.005C413.625 277.161 418.893 274.607 423.256 274.228C425.481 273.959 427.986 273.812 429.697 272.309C430.888 271.068 431.739 269.541 432.167 267.875C432.595 266.209 432.587 264.461 432.142 262.8C433.272 262.037 434.101 260.905 434.488 259.598C436.016 255.088 436.297 251.348 433.804 247.375L433.755 247.339Z" fill="#171717"></path><path d="M376.555 252.523C388.57 254.344 398.934 244.481 396.661 232.723C395.194 244.774 388.301 250.629 376.555 252.523ZM182.283 308.941C179.35 306.167 179.032 304.883 180.046 299.579C176.722 302.451 177.516 308.538 182.283 308.941ZM182.98 339.545C182.452 339.969 182.017 340.495 181.7 341.093C181.384 341.691 181.193 342.347 181.139 343.021C181.085 343.695 181.169 344.373 181.387 345.013C181.605 345.654 181.951 346.243 182.405 346.744C182.564 346.894 182.735 347.029 182.918 347.148C183.527 347.532 184.228 347.743 184.947 347.759C183.8 346.832 183.009 345.536 182.711 344.092C182.606 342.55 182.7 341.002 182.992 339.484L182.98 339.545ZM181.391 313.39C178.017 316.311 178.946 322.361 183.627 322.752C180.596 319.904 180.401 318.572 181.391 313.39ZM182.527 326.37C179.215 329.242 179.997 335.329 184.764 335.732C181.855 332.994 181.501 331.748 182.527 326.37ZM167.286 235.657C166.15 235.828 165.428 237.331 165.685 239.03C165.942 240.729 167.054 241.963 168.191 241.792C169.327 241.621 170.048 240.118 169.792 238.419C169.535 236.72 168.423 235.485 167.286 235.657ZM178.091 282.553C176.954 282.724 176.233 284.228 176.477 285.927C176.722 287.625 177.846 288.86 178.922 288.701C179.997 288.542 180.78 287.027 180.535 285.328C180.291 283.629 179.166 282.394 178.091 282.553ZM195.055 382.58C196.204 382.47 196.998 381.003 196.84 379.292C196.813 379.011 196.76 378.732 196.681 378.461V378.363C196.302 377.141 195.458 376.298 194.517 376.383C193.368 376.493 192.574 377.96 192.733 379.671C192.892 381.382 193.955 382.678 195.092 382.568L195.055 382.58ZM154.648 190.911C154.274 190.709 153.836 190.661 153.426 190.777C153.152 190.869 152.91 191.039 152.73 191.265C152.48 191.627 152.31 192.037 152.23 192.469C152.149 192.9 152.162 193.344 152.265 193.771C152.304 193.978 152.357 194.182 152.424 194.382C152.552 194.772 152.732 195.142 152.962 195.482C153.163 195.783 153.411 196.051 153.695 196.277C153.939 196.475 154.222 196.621 154.526 196.704C154.668 196.723 154.812 196.723 154.954 196.704C155.095 196.701 155.235 196.676 155.37 196.631C155.651 196.519 155.9 196.339 156.095 196.106C156.289 195.873 156.422 195.596 156.482 195.299C156.528 195.131 156.561 194.959 156.58 194.785C156.635 194.191 156.564 193.591 156.372 193.025C156.108 192.118 155.504 191.347 154.685 190.874L154.648 190.911ZM128.395 71.891C126.724 72.339 125.178 73.165 123.877 74.3051C122.576 75.4451 121.554 76.8689 120.891 78.4665L124.411 82.011L122.846 78.8821L124.667 76.8899C126.721 82.5365 134.372 79.9821 132.196 73.7854C133.513 73.5731 134.862 73.7045 136.112 74.1671C137.363 74.6297 138.473 75.4076 139.334 76.4254C138.808 73.871 133.981 70.5221 128.334 71.8788L128.395 71.891Z" fill="#171717"></path><path d="M135.251 69.8847C124.886 65.8758 119.484 75.5313 119.484 75.5313C126.096 69.3224 135.251 69.8847 135.251 69.8847ZM144.222 99.0469C144.821 98.6802 143.11 96.4191 142.523 94.9524C141.936 93.4858 143.672 91.4813 143.672 91.4813C143.672 91.4813 141.007 93.0458 140.787 94.708C140.506 96.798 143.232 99.5969 144.222 99.0469ZM148.157 98.448C150.223 97.3358 149.38 97.2258 151.653 97.5802C153.437 97.8613 154.097 95.7958 152.643 95.1358C149.38 93.5958 148.414 92.9602 147.033 94.5858C145.016 96.9691 146.165 99.5602 148.17 98.4847L148.157 98.448ZM160.294 94.8302C161.003 93.5054 161.293 91.9967 161.125 90.5035C161.125 87.7413 159.133 86.7269 157.275 86.0913C157.986 86.8457 158.506 87.7593 158.791 88.7558C159.063 90.4125 158.842 92.1127 158.155 93.6447C157.385 95.038 155.588 95.1724 155.332 95.7591C154 98.8391 159.219 96.5047 160.306 94.8058L160.294 94.8302ZM141.203 117.368C151.983 128.001 160.758 121.792 159.341 117.661C151.567 120.106 148.255 120.314 141.203 117.368ZM91.1896 84.0624C90.9329 81.398 86.2152 74.6147 81.4852 76.3624C76.4496 78.9902 79.3463 85.7124 79.6518 85.6269C80.2263 86.0058 79.3463 81.9602 80.5563 79.5158C81.5341 77.6091 83.8318 78.0491 85.7018 79.1124C87.9141 80.3347 90.2852 84.8202 91.1896 84.0013V84.0624Z" fill="#171717"></path><path d="M91.3732 92.486C91.9354 87.5971 93.7443 89.1371 87.4987 83.0993C84.5043 80.2026 82.9276 86.2282 83.9421 86.3382C84.6632 86.4115 84.7488 85.116 85.4699 85.2382C85.7632 85.2382 85.8854 85.6049 86.0932 85.8004C90.4076 89.8582 89.271 94.0138 87.4376 93.6838C87.2176 93.6838 87.0099 93.5249 86.7776 93.5004C86.1788 93.4271 85.8976 94.0504 86.8388 94.4171C89.931 95.6393 88.9776 98.7804 90.9088 99.1715C91.911 99.3671 93.0599 98.3038 92.6076 96.6171C92.0332 94.4538 91.1165 94.6126 91.3854 92.486H91.3732Z" fill="#171717"></path></g><defs><clipPath id="clip0_479_3011"><rect width="436" height="515" fill="white"></rect></clipPath></defs></svg>