<svg width="56" height="56" viewBox="0 0 56 56" fill="none" xmlns="http://www.w3.org/2000/svg">
<rect x="0.5" y="0.5" width="55" height="55" rx="7.5" fill="white"/>
<rect x="0.5" y="0.5" width="55" height="55" rx="7.5" stroke="#EAEAEA"/>
<path d="M32.4531 17.0312L24.9531 39.5312C24.8125 39.9062 24.3906 40.0938 23.9688 40C23.5938 39.8594 23.4062 39.4375 23.5 39.0156L31 16.5156C31.1406 16.1406 31.5625 15.9531 31.9844 16.0469C32.3594 16.1875 32.5469 16.6094 32.4531 17.0312ZM20.9688 22.5625L14.875 28L20.9688 33.4375C21.2969 33.7188 21.2969 34.1875 21.0156 34.5156C20.7812 34.8438 20.2656 34.8438 19.9844 34.5625L13.2344 28.5625C13.0469 28.4219 13 28.2344 13 28C13 27.8125 13.0469 27.625 13.2344 27.4375L19.9844 21.4375C20.2656 21.2031 20.7812 21.2031 21.0156 21.5312C21.2969 21.8125 21.2969 22.3281 20.9688 22.5625ZM35.9688 21.4375L42.7188 27.4375C42.9062 27.625 43 27.8125 43 28C43 28.2344 42.9062 28.4219 42.7188 28.5625L35.9688 34.5625C35.6875 34.8438 35.1719 34.8438 34.9375 34.5156C34.6562 34.1875 34.6562 33.7188 34.9844 33.4375L41.0781 28L34.9844 22.5625C34.6562 22.3281 34.6562 21.8125 34.9375 21.5312C35.1719 21.2031 35.6875 21.2031 35.9688 21.4375Z" fill="#171717"/>
</svg>
